<?xml version="1.0" encoding="UTF-8"?>
<svg id="_レイヤー_1" data-name="レイヤー 1" xmlns="http://www.w3.org/2000/svg" viewBox="0 0 158.92 86.55">
  <defs>
    <style>
      .cls-1 {
        fill: #fc0;
      }

      .cls-2 {
        fill: #111;
      }

      .cls-3, .cls-4, .cls-5, .cls-6, .cls-7, .cls-8 {
        fill: #fff;
      }

      .cls-3, .cls-4, .cls-9, .cls-10, .cls-11, .cls-6, .cls-7, .cls-8 {
        stroke-miterlimit: 10;
      }

      .cls-3, .cls-9 {
        stroke-width: .75px;
      }

      .cls-3, .cls-9, .cls-11 {
        stroke: #58be15;
      }

      .cls-4 {
        stroke: #828282;
      }

      .cls-4, .cls-10, .cls-7, .cls-12, .cls-8 {
        stroke-width: .25px;
      }

      .cls-13 {
        fill: #ff7b00;
      }

      .cls-14 {
        fill: #58be15;
      }

      .cls-9, .cls-10, .cls-11, .cls-12 {
        fill: none;
      }

      .cls-10, .cls-7 {
        stroke: #000;
      }

      .cls-11 {
        stroke-width: .5px;
      }

      .cls-6 {
        stroke-width: .2px;
      }

      .cls-6, .cls-8 {
        stroke: #111;
      }

      .cls-12 {
        stroke: #fff;
        stroke-linecap: round;
        stroke-linejoin: round;
      }
    </style>
  </defs>
  <path class="cls-5" d="M101.83,39.19c-4.5,0-8.63,1.53-11.94,4.08-3.31-2.55-7.44-4.08-11.94-4.08s-8.79,1.58-12.13,4.22c-3.34-2.63-7.55-4.22-12.13-4.22-10.84,0-19.62,8.79-19.62,19.62s8.79,19.62,19.62,19.62c4.58,0,8.79-1.58,12.13-4.22,3.34,2.63,7.55,4.22,12.13,4.22s8.63-1.53,11.94-4.08c3.31,2.55,7.44,4.08,11.94,4.08,10.84,0,19.62-8.79,19.62-19.62s-8.79-19.62-19.62-19.62Z"/>
  <path class="cls-5" d="M127.39,10.19c-2.64,0-5.09.75-7.19,2.02-2.1-1.28-4.55-2.02-7.19-2.02s-5.08.75-7.18,2.02c-2.1-1.27-4.55-2.02-7.18-2.02s-5.09.75-7.19,2.02c-2.1-1.28-4.55-2.02-7.19-2.02-2.4,0-4.66.61-6.63,1.69-1.97-1.08-4.23-1.69-6.63-1.69-2.64,0-5.09.75-7.19,2.02-2.1-1.28-4.55-2.02-7.19-2.02s-5.08.75-7.18,2.02c-2.1-1.27-4.55-2.02-7.18-2.02s-5.09.75-7.19,2.02c-2.1-1.28-4.55-2.02-7.19-2.02-7.66,0-13.87,6.21-13.87,13.87s6.21,13.87,13.87,13.87c2.64,0,5.09-.75,7.19-2.02,2.1,1.28,4.55,2.02,7.19,2.02s5.08-.75,7.18-2.02c2.1,1.27,4.55,2.02,7.18,2.02s5.09-.75,7.19-2.02c2.1,1.28,4.55,2.02,7.19,2.02,2.4,0,4.66-.61,6.63-1.69,1.97,1.08,4.23,1.69,6.63,1.69,2.64,0,5.09-.75,7.19-2.02,2.1,1.28,4.55,2.02,7.19,2.02s5.08-.75,7.18-2.02c2.1,1.27,4.55,2.02,7.18,2.02s5.09-.75,7.19-2.02c2.1,1.28,4.55,2.02,7.19,2.02,7.66,0,13.87-6.21,13.87-13.87s-6.21-13.87-13.87-13.87Z"/>
  <path class="cls-13" d="M23.13,27.31c-.22.52-.51,1.07-.86,1.63-.08.14-.19.17-.32.08l-1.34-.75c-.14-.07-.17-.19-.08-.34.58-1,1.03-1.91,1.35-2.74.05-.15.15-.2.3-.14l1.39.47c.15.05.19.15.14.3-.3.8-.51,1.29-.58,1.47ZM28.97,23.63c-.02.15-.1.24-.25.24h-7.57c-.17,0-.25-.08-.24-.24l.41-8.69c.02-.15.1-.24.25-.24h7.59c.15,0,.24.08.22.24l-.41,8.69ZM26.86,21.26h-3.59c-.17,0-.25.08-.27.25l-.03.63c-.02.17.07.24.24.24h3.59c.15,0,.24-.07.24-.24l.03-.63c.02-.17-.05-.25-.2-.25ZM26.97,18.71h-3.59c-.15,0-.24.08-.24.24l-.03.63c-.02.17.05.25.22.25h3.57c.17,0,.24-.08.25-.25l.03-.63c.02-.15-.07-.24-.22-.24ZM27.09,16.22h-3.57c-.15,0-.24.08-.24.25l-.03.58c-.02.17.05.25.2.25h3.59c.15,0,.24-.08.25-.25l.03-.58c.02-.17-.07-.25-.24-.25ZM28.99,28.8c-.03.15-.12.24-.29.22-1.22-.12-2.08-.49-2.57-1.1-.51-.61-.71-1.52-.66-2.74.02-.17.1-.25.25-.25l1.46-.03c.07-.02.12,0,.17.05.03.05.05.12.05.19-.03.66.05,1.13.27,1.42.22.27.68.44,1.35.51.17,0,.22.08.2.24l-.24,1.51Z"/>
  <path class="cls-2" d="M40.41,23.54c0,.15-.09.24-.24.24l-1.34.07c-.15.02-.29.08-.39.2-1.47,1.76-2.22,3.1-2.25,4-.02.68.41,1.13,1.29,1.39.17.05.24.15.19.29l-.46,1.64c-.05.15-.15.2-.3.15-1.93-.56-2.86-1.73-2.79-3.5.03-1.02.64-2.3,1.83-3.88.02-.03.02-.07,0-.12-.03-.05-.07-.07-.1-.05l-5.22.2c-.07,0-.12-.02-.17-.07-.03-.05-.07-.1-.07-.17l.02-1.2c0-.15.09-.24.24-.25l9.55-.36c.05,0,.12.02.17.07.05.03.07.1.07.15l-.02,1.2Z"/>
  <path class="cls-13" d="M52.25,20.11c0,.19-.09.27-.25.27l-3.03.1c-.15,0-.22.08-.22.24l-.02,3.54c0,.17-.09.27-.24.29l-3.69.46c-.19.03-.25.12-.22.29.15.58.36,1.13.63,1.69.05.15.02.25-.1.34l-1.47.78c-.15.07-.27.05-.34-.1-.51-1.03-.85-2.12-1-3.22-.07-.41.14-.63.58-.69l3.45-.49c.17-.02.25-.12.25-.27v-2.52c0-.15-.08-.22-.24-.22l-4.69.15c-.07,0-.14-.02-.19-.07-.05-.03-.07-.08-.07-.15l.02-1.22c0-.15.07-.24.24-.24l4.69-.17c.17-.02.25-.1.25-.25v-2.78c0-.15.07-.22.24-.22h1.68c.17,0,.24.07.24.24v2.69c0,.08.02.14.05.19.05.03.12.05.19.05l3.03-.12c.15,0,.24.07.24.24v1.19Z"/>
  <path class="cls-2" d="M59.46,33.02c-.11.11-.21.11-.32,0l-1.06-1c-.11-.11-.12-.21-.03-.32.71-.81,1.07-1.54,1.1-2.13.01-.45-.09-.81-.33-1.12-.26-.3-.59-.44-1.04-.42-.57.03-1.43.26-2.56.69-.12.05-.18.14-.18.29l-.18,4.31c-.02.15-.09.21-.24.21h-1.48c-.15,0-.23-.06-.21-.2l.15-3.53s-.03-.08-.08-.11c-.05-.03-.08-.03-.12,0l-.94.41c-.15.06-.24.02-.29-.12l-.36-1.07c-.06-.14-.02-.24.11-.3l.59-.24c.14-.06.24-.14.33-.24l.72-.84c.09-.11.14-.23.15-.36v-.63c.03-.14-.03-.21-.18-.21l-1.12.12c-.15.02-.23-.05-.24-.2l-.04-1.06c-.02-.14.06-.21.21-.24l1.25-.12c.14-.03.23-.11.23-.23l.09-2.17c.02-.14.09-.2.23-.2l1.48-.02c.08,0,.12.02.17.05.03.03.05.09.05.17l-.08,1.98c0,.06.01.11.04.15.04.05.09.06.15.05l.8-.08c.14-.02.21.06.21.2l.04,1.06c.02.15-.04.23-.18.24l-.08.02c-.14,0-.24.08-.35.18l-.69.8c-.05.06-.08.14-.08.23.03.03.06.05.11.08,1.03-.35,1.89-.53,2.56-.56.98-.06,1.78.2,2.4.75.62.56.92,1.33.87,2.29-.04,1.21-.59,2.37-1.6,3.44Z"/>
  <path class="cls-2" d="M68.48,32.58c-.1.06-.21.06-.31-.02l-.81-.71c-.09-.08-.07-.15.03-.21.43-.23.72-.41.88-.54.31-.24.45-.48.45-.72,0-.21-.07-.35-.25-.46-.16-.09-.41-.15-.73-.15-.88.01-2.36.1-4.42.29-.15.01-.22-.03-.23-.12l-.07-.76c0-.09.06-.16.19-.17,2.47-.2,4.09-.29,4.83-.27.7.02,1.27.17,1.7.44.47.29.69.68.69,1.16,0,.75-.64,1.5-1.95,2.22Z"/>
  <path class="cls-2" d="M79.26,23.54c0,.15-.09.24-.24.24l-1.34.07c-.15.02-.29.08-.39.2-1.47,1.76-2.22,3.1-2.25,4-.02.68.41,1.13,1.29,1.39.17.05.24.15.19.29l-.46,1.64c-.05.15-.15.2-.3.15-1.93-.56-2.86-1.73-2.79-3.5.03-1.02.64-2.3,1.83-3.88.02-.03.02-.07,0-.12-.03-.05-.07-.07-.1-.05l-5.22.2c-.07,0-.12-.02-.17-.07-.03-.05-.07-.1-.07-.17l.02-1.2c0-.15.08-.24.24-.25l9.55-.36c.05,0,.12.02.17.07.05.03.07.1.07.15l-.02,1.2Z"/>
  <path class="cls-13" d="M82.92,21.07s-.03.08,0,.13c.02.05.05.06.08.06h.49c.14,0,.22.06.21.22l-.21,6c-.02.16-.09.22-.24.22h-1.45c-.14,0-.21-.06-.21-.22l.14-4.58s0-.05-.05-.06c-.03,0-.05,0-.08.02l-.52.68c-.09.13-.19.14-.3.03l-.98-.84c-.11-.09-.13-.21-.03-.33.99-1.31,2.05-2.89,3.19-4.75.09-.13.19-.16.32-.08l1.11.65c.14.08.17.17.09.3-.57.99-1.09,1.85-1.56,2.56ZM93.56,24.86c-.1.13-.21.13-.3.02-.85-.79-1.56-1.52-2.1-2.15-.03-.03-.06-.05-.11-.03-.03,0-.05.03-.06.08l-.08,2.04c0,.16.06.22.22.22h.92c.14,0,.2.08.19.24l-.05.88c0,.16-.08.22-.22.22h-.88c-.14,0-.22.08-.24.24l-.05,1.47c-.02.14-.09.22-.24.22l-1.39.03c-.06,0-.11-.02-.16-.06-.03-.05-.06-.11-.06-.17l.05-1.48c0-.16-.06-.24-.21-.24h-.9c-.16,0-.22-.06-.22-.22l.05-.88c.02-.16.1-.24.25-.24h.87c.16,0,.22-.06.24-.22l.08-1.91s-.02-.05-.06-.08c-.03,0-.05,0-.08.03-.36.44-1.06,1.15-2.08,2.16-.1.11-.21.09-.3-.02l-.93-1.03c-.09-.11-.09-.22.02-.33,1.34-1.29,2.4-2.43,3.19-3.41.03-.03.03-.06,0-.09-.02-.05-.05-.06-.08-.06l-2.4-.02c-.14,0-.21-.08-.21-.22l.06-.98c.02-.16.09-.24.24-.24h2.57c.14,0,.22-.08.24-.22l.11-2.7c0-.14.08-.22.22-.22l1.39-.03c.06,0,.11.02.16.06s.06.09.06.16l-.11,2.73c-.02.14.06.22.22.22l2.61.02c.14,0,.21.06.19.22l-.05.98c0,.16-.08.24-.22.24l-2.48-.02s-.08.02-.09.08c-.03.03-.02.06.02.09.65.84,1.67,1.94,3.11,3.32.09.11.11.21.02.32l-.92.99Z"/>
  <path class="cls-13" d="M96.79,32.77c-.03.16-.13.22-.27.17l-.44-.11c-.14-.03-.19-.13-.17-.25l.24-1.03c.03-.14.13-.21.27-.17l.44.09c.14.03.21.13.17.27l-.24,1.03ZM102.4,33.06c-.03.16-.11.24-.25.24l-1.11-.02c-.14,0-.21-.08-.19-.22.09-.6.21-1.5.3-2.67,0-.14-.06-.22-.22-.22h-3.93c-.14,0-.22-.08-.22-.22l.28-8.4c0-.14.08-.21.22-.21h5.04c.16,0,.22.06.2.21l-.03.87c-.02.14-.09.22-.24.22h-.87c-.14,0-.22.08-.22.22l-.05.88c-.02.16.05.24.2.24h.51c.16,0,.24.06.22.21l-.03.68c0,.14-.08.22-.22.22h-.54c-.14,0-.22.08-.22.24l-.05.93c-.02.16.06.24.2.24h.49c.14,0,.22.06.2.22l-.03.68c0,.14-.08.21-.22.21h-.49c-.16,0-.22.08-.24.24l-.05.99c-.02.14.06.22.22.22h1.47c.16,0,.24.08.22.22-.08,1.23-.2,2.49-.38,3.79ZM98.18,32.47c-.02.14-.08.21-.24.21h-.44c-.16-.02-.22-.09-.22-.24l.03-.88c.02-.14.09-.21.24-.21h.44c.16.02.24.09.22.24l-.03.88ZM99.14,27.59h-.51c-.14,0-.22.08-.22.24l-.03.99c0,.14.06.22.21.22h.47c.14,0,.22-.08.22-.22l.05-.99c.02-.16-.05-.24-.19-.24ZM99.25,25.08h-.52c-.16,0-.22.08-.22.22l-.03.95c0,.16.06.24.2.24h.51c.14,0,.22-.08.22-.24l.05-.93c.02-.16-.05-.24-.21-.24ZM99.36,22.63h-.55c-.14,0-.22.08-.24.22l-.03.88c0,.16.06.24.22.24h.54c.14,0,.22-.08.24-.24l.05-.88c.02-.14-.06-.22-.22-.22ZM99.19,32.55h-.43c-.16,0-.22-.08-.22-.22v-.88c0-.14.06-.22.22-.22h.43c.16,0,.22.06.22.21v.88c0,.16-.06.24-.22.24ZM100.47,32.47h-.44c-.16,0-.22-.08-.22-.22v-.88c0-.14.06-.22.22-.22h.44c.14,0,.22.08.22.22v.87c0,.16-.08.24-.22.24ZM110.39,25.02c-.08.13-.17.16-.3.08-1.52-.95-2.59-1.64-3.19-2.1-.13-.09-.25-.09-.36,0-.76.66-1.56,1.31-2.43,1.96-.13.09-.22.08-.3-.05l-.77-1.09c-.09-.13-.08-.24.05-.33,1.36-.99,2.76-2.19,4.23-3.57.11-.09.2-.09.32,0l.92.84c.11.09.13.21.02.3-.08.09-.21.22-.38.41-.11.09-.09.19.03.28.73.55,1.64,1.15,2.76,1.83.11.08.13.17.06.32l-.65,1.12ZM109.82,30.15c0,.16-.08.24-.22.24h-1.97c-.08,0-.13.03-.14.11-.02.06-.02.14.03.21.43.51,1.03,1.07,1.78,1.69.11.09.13.19.03.3l-.74.98c-.09.11-.19.13-.3.03-.58-.49-1.04-.9-1.36-1.25-.1-.11-.19-.09-.27.05-.27.46-.51.85-.74,1.18-.08.13-.17.14-.3.05l-1.06-.79c-.11-.09-.13-.21-.05-.32.55-.77.95-1.47,1.18-2.05.05-.14,0-.21-.16-.21h-1.41c-.14,0-.21-.08-.21-.24l.13-2.98c.02-.14.1-.22.24-.22h1.67c.14,0,.22-.08.24-.22l.02-.41c0-.14-.06-.21-.21-.21h-1.09c-.16,0-.24-.08-.22-.24l.03-.84c.02-.14.09-.22.24-.22h4.22c.16,0,.24.08.22.24l-.03.82c-.02.16-.09.24-.24.24h-1.03c-.14,0-.22.06-.24.21l-.02.39c0,.06.02.11.05.16.05.05.1.06.16.06l1.66-.02c.06,0,.13.03.16.08.05.05.06.09.06.16l-.13,3.02ZM105.9,28.11h-.28c-.16,0-.24.08-.25.22l-.05.69c0,.16.06.24.22.24h.3c.16,0,.22-.08.24-.24l.03-.69c.02-.14-.06-.22-.21-.22ZM108.32,28.13h-.32c-.14,0-.22.08-.24.22l-.02.69c-.02.14.05.22.19.22h.3c.16,0,.24-.08.24-.22l.03-.69c.02-.14-.05-.22-.19-.22Z"/>
  <path class="cls-2" d="M123.5,25.29c0,.14-.08.21-.24.21l-2.5.06c-.14,0-.22.08-.24.24l-.16,2.91c0,.11,0,.28.02.51.03.24.03.41.03.51,0,1.07-.21,2.46-.65,4.14-.03.14-.13.21-.27.21l-1.61.02c-.06,0-.11-.02-.14-.05s-.03-.09-.02-.17c.11-.43.22-.9.33-1.41.02-.05,0-.09-.05-.13-.03-.05-.08-.05-.13-.05-.11.02-.24.03-.38.03-.73,0-1.3-.24-1.71-.71-.43-.49-.62-1.09-.58-1.82.03-.77.3-1.39.79-1.82.47-.44,1.12-.65,1.91-.63.08,0,.17,0,.3.02.14.03.24-.03.24-.17.03-.41.05-.85.06-1.31,0-.06-.02-.11-.06-.16-.03-.05-.1-.08-.14-.08l-4.36.09c-.14.02-.22-.05-.22-.22v-1.11c0-.16.08-.22.24-.22l4.39-.09c.16,0,.22-.08.24-.24l.08-2.16c0-.14.08-.21.24-.21h1.56c.16,0,.24.06.22.19l-.09,2.13s.03.09.06.14c.05.05.09.08.16.08l2.45-.06c.06,0,.11.02.16.06.05.03.08.09.08.16l-.02,1.12ZM117.83,28.86c-.58,0-.88.32-.9.95-.02.22.03.41.16.58.11.17.28.27.49.3.24.02.46-.05.66-.17.14-.11.22-.41.22-.93,0-.47-.21-.71-.63-.73Z"/>
  <path class="cls-2" d="M126.36,33.16c-.52-.39-.79-.93-.79-1.63,0-.65.25-1.17.73-1.56.46-.35,1.01-.54,1.69-.55.47,0,.95.13,1.4.39.05.02.09.02.13,0,.05-.03.06-.08.05-.11-.08-.46-.36-.82-.85-1.09-.41-.22-.88-.33-1.37-.32-.17,0-.32.06-.43.19l-.08.08c-.09.13-.21.16-.3.06l-1.12-.81c-.13-.09-.16-.21-.08-.32l2.54-3.85s.03-.08.02-.13c-.03-.03-.06-.06-.11-.06l-2.1.05c-.06,0-.11-.02-.16-.06-.03-.03-.06-.09-.06-.14l.06-1.15c.02-.14.09-.21.25-.21l4.64-.08c.06,0,.11.02.16.06.03.03.06.08.06.14l-.05.82c-.02.14-.06.28-.14.41l-2.18,3.25c-.08.11-.05.19.1.21.93.14,1.67.51,2.26,1.12.57.6.85,1.36.85,2.27,0,1.03-.3,1.86-.92,2.51-.62.63-1.42.96-2.45.99-.71,0-1.3-.16-1.75-.51ZM129.1,31.24c-.35-.25-.69-.36-1.07-.35-.49.03-.73.27-.73.71,0,.19.08.33.24.44.17.11.35.16.54.16.51.02.87-.19,1.11-.6.06-.14.05-.25-.08-.36Z"/>
  <g>
    <path class="cls-2" d="M55.46,57.07c-.03.33-.2.5-.5.5h-2.56c-.33,0-.5.13-.5.46l-.03,1.76c0,.33.13.53.4.63.8.33,1.69.66,2.69,1.03.3.1.4.3.3.6l-.63,1.86c-.13.3-.3.4-.56.3l-1.86-.73c-.3-.1-.43,0-.43.3l-.2,7.04c0,.33-.17.5-.5.5h-2.99c-.3,0-.43-.17-.43-.46l.17-7.04c0-.1-.03-.13-.1-.17-.06-.03-.13,0-.17.07-.27.3-.8.9-1.59,1.86-.23.27-.46.27-.7.03l-1.56-1.56c-.23-.23-.23-.46-.03-.7,1.73-1.79,3.12-3.45,4.15-4.98.1-.13.17-.3.17-.53,0-.2-.1-.27-.27-.27h-3.19c-.36,0-.5-.17-.5-.5l.1-1.93c.03-.3.2-.43.5-.43h2.95c.33,0,.5-.17.5-.5l.07-2.56c0-.13-.03-.23-.13-.27-.1-.07-.2-.07-.3-.03-.27.1-.76.3-1.49.6-.3.13-.53.03-.66-.27l-.96-2.32c-.13-.3-.07-.5.23-.6,2.72-1.1,5.41-2.29,8.14-3.59.27-.13.5-.07.63.2l1.16,2.16c.03.07.03.1.03.17,0,.3-.27.6-.83.86,0,0-.46.23-1.43.66-.27.1-.43.33-.43.66l-.1,4.32c0,.33.17.5.46.5h2.62c.33,0,.5.13.46.43l-.1,1.93Z"/>
    <path class="cls-2" d="M69.33,65.4l-1.56.1c-.3,0-.47.17-.5.46l-.3,4.58c0,.33-.17.5-.47.5h-2.82c-.33,0-.46-.17-.46-.5l.27-4.38c.03-.13,0-.23-.1-.3-.1-.1-.23-.13-.37-.13l-6.48.3c-.3.03-.46-.1-.46-.43v-1.89c0-.3.17-.46.46-.5l6.64-.3c.3-.03.47-.2.5-.53l.8-15.31c.03-.33.2-.5.5-.5h2.82c.33,0,.46.17.46.5l-.8,15.14c-.03.1.03.23.13.3.07.1.2.17.3.13l1.39-.07c.33-.03.47.13.47.46v1.86c0,.3-.13.46-.43.5Z"/>
    <path class="cls-2" d="M60.46,60.85c-.2.23-.4.27-.63.07l-2.59-2.12c-.27-.2-.27-.43-.07-.66l1.49-1.83c.23-.23.47-.23.7-.07l2.56,2.12c.27.2.3.43.06.66l-1.53,1.83Z"/>
    <path class="cls-13" d="M61.42,53.52c-.2.27-.43.27-.66.07l-2.36-1.93c-.27-.23-.3-.46-.06-.7l1.53-1.79c.2-.27.43-.27.66-.07l2.33,1.93c.27.2.27.43.06.66l-1.49,1.83Z"/>
  </g>
  <g>
    <path class="cls-2" d="M98.84,55.13c-.03.33-.2.5-.53.5h-2.75c-.33,0-.47-.17-.47-.5l.23-2.42c.03-.3-.1-.46-.43-.46h-15.11c-.3,0-.5.17-.5.46l-.23,2.56c-.03.33-.2.5-.53.5h-2.79c-.3,0-.46-.17-.43-.5l.47-5.38c.03-.3.2-.46.5-.46h22.61c.3,0,.43.17.4.46l-.43,5.25Z"/>
    <path class="cls-2" d="M95.32,66.71c-.03.33-.2.5-.5.5h-5.15c-.3,0-.46.13-.5.4-.17,1.03-.47,2.39-.9,4.05-.07.3-.27.43-.56.43l-2.99-.03c-.3,0-.43-.17-.33-.46.4-1.49.73-2.82.93-3.92.06-.33-.07-.46-.37-.46h-6.11c-.33,0-.46-.17-.46-.5l.17-1.89c.03-.3.2-.43.5-.43h6.14c.33,0,.5-.17.46-.46-.06-.86-.27-1.66-.56-2.39-.13-.3-.1-.56.07-.8.83-.9,1.59-1.83,2.39-2.82.07-.07.07-.17.03-.27-.07-.07-.13-.1-.23-.1h-4.98c-.33,0-.5-.17-.46-.5l.1-1.89c0-.3.2-.43.5-.43h9.76c.3,0,.46.13.46.43l-.03,1.23c0,.33-.06.63-.23.86-.5.8-1.53,2.16-3.12,4.08-.17.23-.23.46-.17.73.13.56.2,1.16.23,1.86.03.3.2.46.5.46h5.11c.3,0,.46.13.43.43l-.13,1.89Z"/>
    <path class="cls-2" d="M81.67,48.16l-1.86.23c-.3.03-.46-.1-.5-.4l-.36-2.79c-.03-.3.1-.46.43-.5l1.83-.23c.33-.07.53.1.56.4l.33,2.76c.03.33-.1.5-.43.53Z"/>
    <path class="cls-13" d="M88.42,48.16l-1.86.2c-.3.03-.5-.1-.5-.43l-.3-2.92c-.03-.3.13-.5.43-.5l1.86-.17c.33-.03.5.1.53.4l.3,2.89c0,.33-.13.5-.46.53Z"/>
    <path class="cls-2" d="M95.62,48.42c-.1.33-.3.43-.6.37l-1.79-.56c-.3-.1-.4-.27-.3-.6l.86-2.89c.1-.3.3-.4.6-.3l1.79.5c.3.1.43.3.3.63l-.86,2.86Z"/>
  </g>
  <path class="cls-13" d="M109.46,70.81c0,.3-.13.43-.43.43h-3.72c-.3,0-.43-.13-.4-.43l.36-3.62c0-.33.2-.5.53-.5h3.29c.3,0,.43.17.43.46l-.06,3.65ZM109.46,62.81c0,.3-.17.46-.47.46h-2.99c-.3,0-.43-.17-.43-.46l.8-17.13c0-.33.17-.5.46-.5h3.32c.3,0,.43.17.43.5l-1.13,17.13Z"/>
  <polygon class="cls-1" points="40.39 15.05 38.75 16.62 39.2 18.84 37.63 17.2 35.41 17.66 37.05 16.09 36.59 13.86 38.16 15.5 40.39 15.05"/>
  <polygon class="cls-1" points="115.03 33.42 113.38 34.99 113.84 37.22 112.27 35.57 110.04 36.03 111.69 34.46 111.23 32.23 112.8 33.88 115.03 33.42"/>
  <polygon class="cls-1" points="109.32 15.33 105.71 13.34 102.11 15.33 104.1 11.72 102.11 8.12 105.71 10.11 109.32 8.12 107.32 11.72 109.32 15.33"/>
  <polygon class="cls-1" points="139.95 26.81 137.84 27.15 137 29.11 136.67 27 134.7 26.16 136.81 25.83 137.65 23.86 137.98 25.97 139.95 26.81"/>
  <polygon class="cls-1" points="77.15 71.83 74.22 72.89 73.57 75.94 72.5 73.01 69.46 72.36 72.39 71.29 73.04 68.25 74.11 71.17 77.15 71.83"/>
  <polygon class="cls-1" points="37.14 33.64 32.89 35.77 32.45 40.5 30.32 36.26 25.59 35.81 29.83 33.68 30.28 28.95 32.41 33.19 37.14 33.64"/>
  <g>
    <ellipse class="cls-7" cx="25.59" cy="17.38" rx="1.79" ry="2.75"/>
    <ellipse class="cls-7" cx="21.86" cy="17.38" rx="1.79" ry="2.75"/>
    <circle cx="21.38" cy="16.35" r="1.02"/>
    <circle cx="25.03" cy="16.35" r="1.02"/>
    <circle class="cls-5" cx="21.15" cy="16.08" r=".43"/>
    <circle class="cls-5" cx="24.84" cy="16.08" r=".43"/>
    <path class="cls-10" d="M20.41,13.15c0,.82.66,1.48,1.48,1.48"/>
    <path class="cls-10" d="M23.93,13.15c0,.82.66,1.48,1.48,1.48"/>
  </g>
  <g>
    <g>
      <path class="cls-6" d="M67,19.39c.44-1.53.4-2.89-.09-3.03-.17-.05-.36.05-.57.27-.02-.81-.27-1.42-.72-1.55-.12-.03-.25-.03-.38,0-.08-.61-.31-1.04-.69-1.15-.42-.12-.93.21-1.36.83-.12-.37-.32-.63-.59-.71-.71-.2-1.65.87-2.09,2.41-.22.75-.27,1.47-.19,2.04-.28.28-.51.61-.66.98-.97-.52-1.94-.58-2.24-.1-.33.53.26,1.49,1.31,2.15.38.24.77.4,1.12.49.42.74,1.13,1.33,2.05,1.59,1.76.51,3.56-.4,4.03-2.03,0,0,0-.01,0-.02.38-.43.77-1.23,1.04-2.18Z"/>
      <line class="cls-6" x1="63.21" y1="14.76" x2="61.83" y2="18.95"/>
      <line class="cls-6" x1="65.3" y1="15.08" x2="63.84" y2="19.51"/>
      <line class="cls-6" x1="66.32" y1="16.58" x2="65.09" y2="20.08"/>
    </g>
    <path class="cls-8" d="M59.73,19.51c1.12-.2,2.18.55,2.38,1.67"/>
  </g>
  <g>
    <path class="cls-4" d="M33.7,64.95l-2.14-4.28-2.89,1.44,2.14,4.28c-2.05,1.83-2.74,4.85-1.45,7.43,1.54,3.08,5.28,4.33,8.36,2.79s4.33-5.28,2.79-8.36c-1.29-2.58-4.12-3.85-6.81-3.3Z"/>
    <ellipse class="cls-14" cx="36.08" cy="73.18" rx="4.21" ry="2.7" transform="translate(-29.02 23.99) rotate(-26.68)"/>
    <g>
      <circle class="cls-14" cx="33.18" cy="68.2" r="1.22"/>
      <circle class="cls-14" cx="35.64" cy="67.45" r=".81"/>
      <circle class="cls-14" cx="37.5" cy="68.71" r=".39"/>
      <circle class="cls-5" cx="32.58" cy="67.75" r=".16"/>
      <circle class="cls-5" cx="35.57" cy="68.07" r=".11"/>
    </g>
  </g>
  <g>
    <g>
      <polygon class="cls-3" points="128.32 51.7 123.29 53.01 119.64 49.3 121.02 44.29 126.06 42.98 129.71 46.69 128.32 51.7"/>
      <line class="cls-9" x1="122.47" y1="45.4" x2="121.55" y2="48.56"/>
      <line class="cls-9" x1="121.87" y1="49.46" x2="124.25" y2="51.74"/>
    </g>
    <g>
      <polygon class="cls-3" points="114.67 56.74 116.38 54.5 119.17 54.86 120.26 57.46 118.56 59.7 115.76 59.34 114.67 56.74"/>
      <line class="cls-9" x1="119.28" y1="57.47" x2="118.61" y2="55.81"/>
      <line class="cls-9" x1="118.17" y1="55.54" x2="116.39" y2="55.36"/>
    </g>
    <line class="cls-11" x1="119.92" y1="49.47" x2="113.74" y2="52.22"/>
    <line class="cls-11" x1="123.51" y1="53.41" x2="124.06" y2="57.33"/>
  </g>
  <path class="cls-1" d="M84.71,36.48c1.74-.11,3.12-1.44,3.35-3.1-.52.71-1.33,1.19-2.28,1.25-1.68.1-3.12-1.17-3.22-2.85-.06-.91.3-1.75.89-2.34-1.57.47-2.66,1.96-2.56,3.67.12,1.99,1.83,3.5,3.82,3.37Z"/>
  <ellipse class="cls-12" cx="36.45" cy="72.5" rx="2.77" ry="1.78" transform="translate(-22.61 16.85) rotate(-20.01)"/>
</svg>