<?xml version="1.0" encoding="UTF-8"?>
<svg id="_レイヤー_1" data-name="レイヤー 1" xmlns="http://www.w3.org/2000/svg" viewBox="0 0 463 143">
  <defs>
    <style>
      .cls-1 {
        fill: #60952b;
      }

      .cls-2 {
        fill: #dfd000;
      }

      .cls-3 {
        fill: #c60c17;
      }

      .cls-4 {
        fill: #1698c5;
      }
    </style>
  </defs>
  <path class="cls-3" d="M30.25,98.94l-7.19-21.28c-2.82.88-5.62.68-8.27-.63l10.03-20.26c2.74,1.36,4.71,3.58,5.7,6.51.83,2.46.75,4.92-.08,7.4l8.55,25.31-8.73,2.95ZM23.56,47.85c.88,2.59.73,5.07-.49,7.54-1.24,2.4-3.1,4.09-5.7,4.96s-5.03.63-7.4-.54l8.65-17.59c2.46,1.22,4.09,3.1,4.94,5.63ZM49.21,91.63c-1.3.44-2.57.49-3.87.24l2.98-12.33c2.39.56,3.99,1.92,4.78,4.24.39,1.16.4,2.3.17,3.44-.47,2.21-1.88,3.67-4.06,4.41ZM54.12,43.84l.88,2.59,12.28-4.15,6.84,20.26-31.04,10.48-6.84-20.26,11.94-4.03-.88-2.59-13.92,4.7-2.81-8.32,13.99-4.72-1.11-3.27c-.32-.96-.23-1.82.15-2.71.45-.91,1.09-1.51,2.04-1.83,2.23-.83,3.78-.06,4.56,2.26l1.11,3.27,14.05-4.75,2.81,8.32-14.05,4.75ZM64.17,50.86l-20.19,6.82,2.6,7.71,20.19-6.82-2.6-7.71ZM47.09,62.63c-.37-1.09-.26-2.12.17-3.1.5-1,1.25-1.71,2.34-2.08,1.02-.35,2.12-.26,3.05.26,1,.5,1.71,1.24,2.08,2.34l-7.64,2.58ZM69.2,86.02c-5.3,1.87-8.94,3.02-11.08,3.44l-4.47-13.01,6.62-2.23,1.96,5.8c2.89-.9,6.16-2.01,9.94-3.43l-.41-1.23c-.41-1.23,0-2.05,1.15-2.44,1.21-.48,2.03-.08,2.44,1.15l2.95,8.5c-1.09.6-4.14,1.7-9.09,3.45ZM56.98,59.29c-.37-1.09-.33-2.09.17-3.1s1.24-1.71,2.27-2.06c1.09-.37,2.12-.26,3.12.24s1.71,1.25,2.08,2.34l-7.64,2.58ZM67.7,73.91c-1.16.39-2.25.31-3.35-.24-1.07-.47-1.83-1.36-2.22-2.52-.37-1.09-.28-2.18.24-3.35l7.78,3.91c-.54,1.1-1.36,1.83-2.45,2.2ZM70.88,67.36c.54-1.1,1.36-1.83,2.52-2.22s2.25-.3,3.35.24c1,.5,1.76,1.38,2.15,2.54.37,1.09.28,2.18-.26,3.28l-7.76-3.84Z"/>
  <path class="cls-1" d="M95.75,90.72l-.42,2.41,31.78,5.56c-1.5,7.34-3.01,13.44-4.4,18.46l-9.15-1.6c-1.7-.3-2.35-1.21-2.06-2.85.25-1.42,1.15-1.99,2.85-1.69l1.63.29c.52-1.74,1.1-4.19,1.87-7.35l-22.34-3.91c.75.72.96,1.63.78,2.62l-.51,2.91,5.89,1.03.61-3.91,5.53.97-1.92,10.56-28.87-5.05,1.97-10.84,5.6.98-.73,4.18,5.89,1.03.51-2.91c.17-.99.75-1.77,1.7-2.19l-5.74-1.01,7-40,32.48,5.68-3.81,22.21-24.61-4.31-.42,2.41,34.76,6.08-1.1,6.31-34.76-6.08ZM110.98,53.84c-.34,1.92-1.26,3.43-2.84,4.55s-3.34,1.54-5.32,1.19c-2.13-.37-3.69-1.45-4.83-3.33l12.16-7.23c.84,1.46,1.15,3.05.84,4.82ZM99.8,67.6l-1.49,8.51,16.95,2.97,1.56-8.5-17.02-2.98ZM110.61,75.12c-1.08.76-2.31,1.06-3.72.81s-2.47-.94-3.23-2.03c-.82-1.17-1.05-2.38-.8-3.79l9.79,1.71c-.25,1.42-.87,2.48-2.04,3.3Z"/>
  <path class="cls-2" d="M179.45,86.91l-5.47-7.49c4.82-3.02,7.27-6.84,7.2-11.3-.07-2.45-.94-4.32-2.74-5.62s-3.89-1.94-6.41-1.87c-2.81.14-7.85,2.02-15.12,5.62v29.31h-9.22v-24.55l-2.02,1.08c-.58.22-1.22.36-1.94.36-1.22,0-2.38-.43-3.31-1.3-1.01-.86-1.51-1.87-1.51-3.17,0-1.8,1.08-3.46,3.17-4.75.07-.07,1.94-1.01,5.62-2.81v-1.37c-.58.14-1.22.22-1.87.22-2.38,0-4.46-.86-6.12-2.52-1.73-1.73-2.52-3.74-2.52-6.12h10.51v-5.98c0-1.3.43-2.38,1.37-3.24.86-.94,1.94-1.37,3.24-1.37,1.22,0,2.3.43,3.24,1.37.94.86,1.37,1.94,1.37,3.24v11.45c6.7-2.95,11.95-4.39,15.99-4.39,5.11.14,9.29,1.66,12.31,4.68,3.1,2.95,4.61,7.06,4.54,12.24-.07,7.63-3.46,13.75-10.3,18.29Z"/>
  <path class="cls-2" d="M221.77,109.17l-24.91-24.27,18.43-19.73c1.15-1.3,2.66-1.94,4.39-1.94,1.58,0,2.88.5,3.96,1.58s1.58,2.38,1.58,3.89-.5,2.81-1.66,3.96l-11.88,12.46,17.07,16.13-6.98,7.92Z"/>
  <path class="cls-2" d="M276.93,85.91l-5.47-7.49c4.82-3.02,7.27-6.84,7.2-11.3-.07-2.45-.94-4.32-2.74-5.62s-3.89-1.94-6.41-1.87c-2.81.14-7.85,2.02-15.12,5.62v29.31h-9.22v-24.55l-2.02,1.08c-.58.22-1.22.36-1.94.36-1.22,0-2.38-.43-3.31-1.3-1.01-.86-1.51-1.87-1.51-3.17,0-1.8,1.08-3.46,3.17-4.75.07-.07,1.94-1.01,5.62-2.81v-1.37c-.58.14-1.22.22-1.87.22-2.38,0-4.46-.86-6.12-2.52-1.73-1.73-2.52-3.74-2.52-6.12h10.51v-5.98c0-1.3.43-2.38,1.37-3.24.86-.94,1.94-1.37,3.24-1.37,1.22,0,2.3.43,3.24,1.37.94.86,1.37,1.94,1.37,3.24v11.45c6.7-2.95,11.95-4.39,15.99-4.39,5.11.14,9.29,1.66,12.31,4.68,3.1,2.95,4.61,7.06,4.54,12.24-.07,7.63-3.46,13.75-10.3,18.29Z"/>
  <path class="cls-2" d="M318.25,101.17l-24.91-24.27,18.43-19.73c1.15-1.3,2.66-1.94,4.39-1.94,1.58,0,2.88.5,3.96,1.58s1.58,2.38,1.58,3.89-.5,2.81-1.66,3.96l-11.88,12.46,17.07,16.13-6.98,7.92Z"/>
  <path class="cls-4" d="M362.23,119l-8.44-7.72c4.89-7.81,8.2-15,9.86-21.46h-28.79v-15.89h41.73c-1.1,16.97-5.92,31.97-14.35,45.08ZM365.15,60.64c-2.45,2.69-5.44,4.13-8.99,4.13s-6.47-1.44-8.91-4.22-3.71-6.11-3.71-10.15h25.32c0,4.04-1.18,7.45-3.71,10.24Z"/>
  <path class="cls-4" d="M390.39,80.89c-.63.18-1.66.27-3,.27-2.37,0-4.42-.9-6.07-2.87l12.15-13.74c1.66,1.89,2.52,4.13,2.52,6.91s-.79,4.94-2.45,6.82c-1.18,1.35-2.29,2.25-3.15,2.6ZM432.2,55.21c-2.76,3.14-6.07,4.67-10.1,4.67h-3.79v39.87h-14.04c-1.02,0-1.81-.36-2.52-1.08-.63-.81-1.03-1.71-1.03-2.78-.08-1.17.24-2.07.95-2.87.71-.81,1.5-1.17,2.52-1.17h3.55v-31.97h-4.81c-4.1,0-7.49-1.53-10.1-4.58-2.68-3.05-4.02-6.91-4.02-11.67h18.93v-12.39h10.57v12.39l17.91.09c0,4.58-1.34,8.44-4.02,11.49ZM437.01,81.69c-2.45,0-4.5-.9-6.15-2.78-1.66-1.89-2.52-4.13-2.52-6.91s.87-5.03,2.52-6.91l12.15,13.74c-1.66,1.98-3.63,2.87-5.99,2.87ZM437.16,38.33c-1.02,1.17-2.21,1.71-3.63,1.71v-11.67c1.42,0,2.6.54,3.63,1.71.95,1.08,1.42,2.51,1.42,4.13s-.47,3.05-1.42,4.13ZM442.29,37.97c-.95-1.08-1.5-2.51-1.5-4.13s.55-3.05,1.5-4.13c1.03-1.17,2.29-1.71,3.71-1.71v11.76c-1.42,0-2.68-.63-3.71-1.8Z"/>
</svg>