<?xml version="1.0" encoding="UTF-8"?>
<svg xmlns="http://www.w3.org/2000/svg" version="1.1" xmlns:xlink="http://www.w3.org/1999/xlink" viewBox="0 0 463 143">
  <!-- Generator: Adobe Illustrator 29.3.1, SVG Export Plug-In . SVG Version: 2.1.0 Build 151)  -->
  <defs>
    <style>
      .st0, .st1, .st2, .st3, .st4, .st5 {
        mix-blend-mode: screen;
      }

      .st0, .st6 {
        fill: #1698c5;
      }

      .st7 {
        mask: url(#mask-1);
      }

      .st8 {
        fill: #60952b;
      }

      .st9, .st2 {
        fill: #fff;
      }

      .st10 {
        mask: url(#mask);
      }

      .st1 {
        fill: #e83545;
      }

      .st11 {
        mask: url(#mask-2);
      }

      .st12 {
        isolation: isolate;
      }

      .st3 {
        fill: #1e684a;
      }

      .st13 {
        fill: #dfd000;
      }

      .st14 {
        fill: #c60c17;
      }

      .st15 {
        fill: #f49c0f;
      }

      .st5 {
        fill: #6c8231;
      }

      .st16 {
        mask: url(#mask-3);
      }
    </style>
    <mask id="mask" x="349.5" y="28.8" width="32.6" height="21.8" maskUnits="userSpaceOnUse">
      <rect class="st1" x="349.5" y="28.8" width="32.6" height="21.8"/>
    </mask>
    <mask id="mask-1" x="384.3" y="77.8" width="22.8" height="21.8" maskUnits="userSpaceOnUse">
      <rect class="st1" x="384.3" y="77.8" width="22.8" height="21.8"/>
    </mask>
    <mask id="mask-2" x="436.5" y="81.1" width="22.8" height="21.8" maskUnits="userSpaceOnUse">
      <rect class="st1" x="436.5" y="81.1" width="22.8" height="21.8"/>
    </mask>
    <mask id="mask-3" x="443" y="36.5" width="22.8" height="21.8" maskUnits="userSpaceOnUse">
      <rect class="st1" x="443" y="36.5" width="22.8" height="21.8"/>
    </mask>
  </defs>
  <g class="st12">
    <g id="_レイヤー_1" data-name="レイヤー_1">
      <path class="st15" d="M188.4,77.3l-7-7.2c4.7-4,6.8-8.5,6.1-13.3-.4-2.6-1.7-4.5-3.8-5.6s-4.5-1.5-7.2-1.1c-3,.6-8.2,3.4-15.4,8.3l4.4,31.6-9.9,1.4-3.7-26.5-2,1.5c-.6.3-1.3.6-2,.7-1.3.2-2.6-.1-3.8-.9-1.2-.8-1.9-1.8-2.1-3.2s.6-3.9,2.7-5.6c0,0,1.9-1.4,5.6-3.9l-.2-1.5c-.6.2-1.3.4-2,.5-2.6.4-4.9-.3-7-1.8-2.1-1.6-3.3-3.7-3.6-6.2l11.3-1.6-.9-6.4c-.2-1.4.1-2.6,1-3.7.8-1.1,1.9-1.8,3.3-2s2.5.1,3.7,1c1.1.8,1.8,1.9,2,3.3l1.7,12.3c6.8-4.2,12.2-6.5,16.6-7.1,5.5-.6,10.3.4,14,3.2,3.8,2.7,6,6.9,6.7,12.5,1.1,8.2-1.7,15.3-8.3,21.3Z"/>
      <path class="st13" d="M224.2,113.9l-27.1-26.4,20.1-21.5c1.3-1.4,2.9-2.1,4.8-2.1s3.1.5,4.3,1.7,1.7,2.6,1.7,4.2-.5,3.1-1.8,4.3l-12.9,13.6,18.6,17.5-7.6,8.6Z"/>
      <path class="st15" d="M282,90.7l-6-8.1c5.2-3.3,7.9-7.4,7.8-12.3,0-2.7-1-4.7-3-6.1s-4.2-2.1-7-2c-3.1.2-8.5,2.2-16.4,6.1v31.9h-10v-26.7l-2.2,1.2c-.6.2-1.3.4-2.1.4-1.3,0-2.6-.5-3.6-1.4-1.1-.9-1.6-2-1.6-3.4s1.2-3.8,3.4-5.2c0,0,2.1-1.1,6.1-3.1v-1.5c-.6.2-1.3.2-2,.2-2.6,0-4.9-.9-6.7-2.7-1.9-1.9-2.7-4.1-2.7-6.7h11.4v-6.5c0-1.4.5-2.6,1.5-3.5.9-1,2.1-1.5,3.5-1.5s2.5.5,3.5,1.5c1,.9,1.5,2.1,1.5,3.5v12.5c7.3-3.2,13-4.8,17.4-4.8,5.6.2,10.1,1.8,13.4,5.1,3.4,3.2,5,7.7,4.9,13.3,0,8.3-3.8,15-11.2,19.9Z"/>
      <path class="st13" d="M329.1,116l-27.1-26.4,20.1-21.5c1.3-1.4,2.9-2.1,4.8-2.1s3.1.5,4.3,1.7,1.7,2.6,1.7,4.2-.5,3.1-1.8,4.3l-12.9,13.6,18.6,17.5-7.6,8.6Z"/>
      <path class="st6" d="M371.1,95.5l-8.4-6.7c4.9-6.8,8.1-13.1,9.8-18.7h-28.6v-13.9h41.4c-1.1,14.8-5.9,27.9-14.3,39.3Z"/>
      <g class="st10">
        <path class="st0" d="M374,44.6c-2.4,2.3-5.4,3.6-8.9,3.6s-6.4-1.3-8.9-3.7c-2.4-2.4-3.7-5.3-3.7-8.9h25.1c0,3.5-1.2,6.5-3.7,8.9Z"/>
      </g>
      <g class="st7">
        <path class="st0" d="M395.9,98c-.7.2-1.9.3-3.5.3-2.7,0-5.1-.9-7.1-2.9l14.1-14c1.9,1.9,2.9,4.2,2.9,7.1s-.9,5-2.8,7c-1.4,1.4-2.7,2.3-3.7,2.7Z"/>
      </g>
      <path class="st6" d="M444.5,71.8c-3.2,3.2-7.1,4.8-11.7,4.8h-4.4v40.7h-16.3c-1.2,0-2.1-.4-2.9-1.1-.7-.8-1.2-1.7-1.2-2.8,0-1.2.3-2.1,1.1-2.9.8-.8,1.7-1.2,2.9-1.2h4.1v-32.6h-5.6c-4.8,0-8.7-1.6-11.7-4.7-3.1-3.1-4.7-7.1-4.7-11.9h22v-12.6h12.3v12.6h20.8c0,4.8-1.6,8.7-4.7,11.8Z"/>
      <g class="st11">
        <path class="st0" d="M450.1,98.8c-2.8,0-5.2-.9-7.1-2.8-1.9-1.9-2.9-4.2-2.9-7.1s1-5.1,2.9-7.1l14.1,14c-1.9,2-4.2,2.9-7,2.9Z"/>
      </g>
      <g class="st16">
        <g class="st4">
          <path class="st6" d="M450.2,54.6c-1.2,1.2-2.6,1.7-4.2,1.7v-11.9c1.6,0,3,.5,4.2,1.7,1.1,1.1,1.6,2.6,1.6,4.2s-.6,3.1-1.6,4.2Z"/>
          <path class="st6" d="M456.2,54.2c-1.1-1.1-1.7-2.6-1.7-4.2s.6-3.1,1.7-4.2c1.2-1.2,2.7-1.7,4.3-1.7v12c-1.6,0-3.1-.6-4.3-1.8Z"/>
        </g>
      </g>
      <g>
        <path class="st14" d="M30.6,112.1l-11.2-21.7c-2.9,1.4-5.9,1.7-9,.7l7.5-23.4c3.2,1,5.6,3.1,7.2,6.1s1.6,5.2,1.1,8l13.3,25.8-8.9,4.6Z"/>
        <path class="st14" d="M15.1,58.2c1.4,2.6,1.6,5.3.7,8.2-.9,2.8-2.7,4.9-5.3,6.3s-5.3,1.5-8,.6l6.4-20.3c2.8.9,4.9,2.7,6.2,5.2Z"/>
        <path class="st14" d="M50.4,101.2c-1.3.7-2.7.9-4.1.9l1.2-13.7c2.7.2,4.6,1.4,5.8,3.8s.8,2.4.8,3.7c-.1,2.5-1.4,4.3-3.6,5.4Z"/>
        <path class="st14" d="M47.3,48.9l1.4,2.6,12.5-6.5,10.7,20.7-31.7,16.4-10.7-20.7,12.2-6.3-1.4-2.6-14.2,7.3-4.4-8.5,14.3-7.4-1.7-3.3c-.5-1-.6-1.9-.3-2.9.3-1.1.9-1.8,1.9-2.3,2.3-1.3,4.1-.7,5.3,1.7l1.7,3.3,14.3-7.4,4.4,8.5-14.3,7.4Z"/>
        <rect class="st2" x="39.4" y="59.6" width="23.2" height="8.9" transform="translate(-23.7 30.6) rotate(-27.3)"/>
        <path class="st14" d="M42.8,70.3c-.6-1.1-.6-2.2-.3-3.4.4-1.2,1.1-2,2.2-2.6s2.2-.6,3.3-.2c1.2.4,2,1.1,2.6,2.2l-7.8,4Z"/>
        <path class="st14" d="M52.9,65.1c-.6-1.1-.7-2.2-.3-3.4s1.1-2,2.1-2.6,2.2-.6,3.4-.3,2,1.1,2.6,2.2l-7.8,4Z"/>
        <path class="st14" d="M70.4,91.8c-5.4,2.9-9.1,4.7-11.3,5.5l-6.9-13.3,6.7-3.5,3.1,5.9c3-1.4,6.3-3.2,10.1-5.3l-.6-1.3c-.6-1.3-.3-2.2.8-2.8,1.2-.7,2.2-.4,2.8.8l4.6,8.7c-1.1.8-4.2,2.5-9.2,5.2Z"/>
        <path class="st14" d="M66.8,79c-1.2.6-2.4.7-3.6.3-1.2-.3-2.2-1.2-2.8-2.3s-.7-2.3-.3-3.6l9,2.9c-.4,1.3-1.2,2.2-2.3,2.8Z"/>
        <path class="st14" d="M69.2,71.5c.4-1.3,1.2-2.2,2.3-2.8s2.4-.7,3.6-.3,2.1,1.2,2.7,2.4.7,2.3.3,3.6l-9-2.9Z"/>
        <path class="st3" d="M50.4,101.2c-1.3.7-2.7.9-4.1.9l1.2-13.7c2.7.2,4.6,1.4,5.8,3.8s.8,2.4.8,3.7c-.1,2.5-1.4,4.3-3.6,5.4Z"/>
        <path class="st3" d="M66.8,79c-1.2.6-2.4.7-3.6.3-1.2-.3-2.2-1.2-2.8-2.3s-.7-2.3-.3-3.6l9,2.9c-.4,1.3-1.2,2.2-2.3,2.8Z"/>
        <path class="st3" d="M69.2,71.5c.4-1.3,1.2-2.2,2.3-2.8s2.4-.7,3.6-.3,2.1,1.2,2.7,2.4.7,2.3.3,3.6l-9-2.9Z"/>
        <path class="st3" d="M42.8,70.3c-.6-1.1-.6-2.2-.3-3.4.4-1.2,1.1-2,2.2-2.6s2.2-.6,3.3-.2c1.2.4,2,1.1,2.6,2.2l-7.8,4Z"/>
        <path class="st3" d="M52.9,65.1c-.6-1.1-.7-2.2-.3-3.4s1.1-2,2.1-2.6,2.2-.6,3.4-.3,2,1.1,2.6,2.2l-7.8,4Z"/>
        <path class="st3" d="M15.1,58.2c1.4,2.6,1.6,5.3.7,8.2-.9,2.8-2.7,4.9-5.3,6.3s-5.3,1.5-8,.6l6.4-20.3c2.8.9,4.9,2.7,6.2,5.2Z"/>
      </g>
      <g>
        <path class="st8" d="M97.1,88.6l-.4,2.6,34.7,5.3c-1.5,8-3,14.7-4.4,20.2l-10-1.5c-1.9-.3-2.6-1.3-2.3-3s1.2-2.2,3.1-1.9l1.8.3c.5-1.9,1.1-4.6,1.9-8l-24.4-3.7c.8.8,1.1,1.8.9,2.8l-.5,3.2,6.4,1,.6-4.3,6,.9-1.8,11.5-31.5-4.8,1.9-11.8,6.1.9-.7,4.6,6.4,1,.5-3.2c.2-1.1.8-1.9,1.8-2.4l-6.3-1,6.7-43.7,35.5,5.4-3.6,24.2-26.9-4.1-.4,2.6,37.9,5.8-1.1,6.9-37.9-5.8Z"/>
        <path class="st8" d="M112.8,48.2c-.3,2.1-1.3,3.8-3,5s-3.6,1.7-5.8,1.4-4.1-1.5-5.3-3.5l13.1-8.1c.9,1.6,1.3,3.3,1,5.2Z"/>
        <polygon class="st9" points="101 63.4 99.5 72.7 118 75.5 119.5 66.2 101 63.4"/>
        <path class="st8" d="M112.9,71.3c-1.2.9-2.5,1.2-4,1s-2.7-1-3.6-2.1c-.9-1.3-1.2-2.6-1-4.1l10.7,1.6c-.2,1.5-.9,2.7-2.1,3.6Z"/>
        <path class="st5" d="M112.9,71.3c-1.2.9-2.5,1.2-4,1s-2.7-1-3.6-2.1c-.9-1.3-1.2-2.6-1-4.1l10.7,1.6c-.2,1.5-.9,2.7-2.1,3.6Z"/>
        <path class="st5" d="M112.8,48.2c-.3,2.1-1.3,3.8-3,5s-3.6,1.7-5.8,1.4-4.1-1.5-5.3-3.5l13.1-8.1c.9,1.6,1.3,3.3,1,5.2Z"/>
      </g>
      <path class="st13" d="M327.5,47.3c-12.5,1.9-14.1,3.5-16.1,16.1-1.9-12.5-3.5-14.1-16.1-16.1,12.5-1.9,14.1-3.5,16.1-16.1,1.9,12.5,3.5,14.1,16.1,16.1Z"/>
      <path class="st13" d="M188.3,105.5c-10.4,1.6-11.8,2.9-13.4,13.4-1.6-10.4-2.9-11.8-13.4-13.4,10.4-1.6,11.8-2.9,13.4-13.4,1.6,10.4,2.9,11.8,13.4,13.4Z"/>
    </g>
  </g>
</svg>